<svg enable-background="new 0 0 945 495" viewBox="0 0 945 495" xmlns="http://www.w3.org/2000/svg" xmlns:xlink="http://www.w3.org/1999/xlink"><defs><path id="SVGID_1_" d="M0 0H945V495H0Z"/><clipPath id="SVGID_00000009566251086037176430000007783945616048984727_"><use xlink:href="#SVGID_1_"/></clipPath><clipPath id="SVGID_00000083075460076386199110000000666758896500086683_"><use xlink:href="#SVGID_00000121277895198594946150000003401984515824844971_"/></clipPath><clipPath id="SVGID_00000005957529923628289320000006267912750948556445_"><use xlink:href="#SVGID_00000037667133851003307390000012311019109283410846_"/></clipPath><clipPath id="SVGID_00000034777193844872884020000011047890814899034766_"><use xlink:href="#SVGID_00000102543962464810906510000007263902935963745170_"/></clipPath><clipPath id="SVGID_00000055702675316332488150000016445443299597956262_"><use xlink:href="#SVGID_00000044885471471474731190000003715692368446399363_"/></clipPath><clipPath id="SVGID_00000138554429407647852780000001314348185702308511_"><use xlink:href="#SVGID_00000061444615354743263210000003279039554678097315_"/></clipPath><clipPath id="SVGID_00000127019626641700573970000003552775506024692913_"><use xlink:href="#SVGID_00000136405301625172912560000006454184799010811068_"/></clipPath><clipPath id="SVGID_00000021799914937292683660000004207043706342634918_"><use xlink:href="#SVGID_00000120553112103704949400000007581244249262094470_"/></clipPath><clipPath id="SVGID_00000035494115475756554690000010764824240815843489_"><use xlink:href="#SVGID_00000181074534884096317840000013683374612654827143_"/></clipPath><clipPath id="SVGID_00000162332194128736990630000003525439364909038985_"><use xlink:href="#SVGID_00000065764873054937981170000018281215658733276337_"/></clipPath><clipPath id="SVGID_00000009558932763291667150000005918498973617868470_"><use xlink:href="#SVGID_00000160905825584348619150000006246757229161998248_"/></clipPath><clipPath id="SVGID_00000055691433404049393660000017750020748326019000_"><use xlink:href="#SVGID_00000016796481114940902000000016170835598314733196_"/></clipPath><clipPath id="SVGID_00000101074429876627127260000015871889071856927387_"><use xlink:href="#SVGID_00000028307730912502048770000007366041206156836483_"/></clipPath><clipPath id="SVGID_00000021830165097905357730000006304428335642683555_"><use xlink:href="#SVGID_00000013193710372293928290000015322947582664268453_"/></clipPath><path id="SVGID_00000121277895198594946150000003401984515824844971_" d="M0 0H945V495H0Z"/><path id="SVGID_00000037667133851003307390000012311019109283410846_" d="M0 0H945V495H0Z"/><path id="SVGID_00000102543962464810906510000007263902935963745170_" d="M0 0H945V495H0Z"/><path id="SVGID_00000044885471471474731190000003715692368446399363_" d="M0 0H945V495H0Z"/><path id="SVGID_00000061444615354743263210000003279039554678097315_" d="M0 0H945V495H0Z"/><path id="SVGID_00000136405301625172912560000006454184799010811068_" d="M0 0H945V495H0Z"/><path id="SVGID_00000120553112103704949400000007581244249262094470_" d="M0 0H945V495H0Z"/><path id="SVGID_00000181074534884096317840000013683374612654827143_" d="M0 0H945V495H0Z"/><path id="SVGID_00000065764873054937981170000018281215658733276337_" d="M0 0H945V495H0Z"/><path id="SVGID_00000160905825584348619150000006246757229161998248_" d="M0 0H945V495H0Z"/><path id="SVGID_00000016796481114940902000000016170835598314733196_" d="M0 0H945V495H0Z"/><path id="SVGID_00000028307730912502048770000007366041206156836483_" d="M0 0H945V495H0Z"/><path id="SVGID_00000013193710372293928290000015322947582664268453_" d="M0 0H945V495H0Z"/></defs><path clip-path="url(#SVGID_00000009566251086037176430000007783945616048984727_)" d="M-.4 0H945.5V495H-.4Z" fill="#94d0f8"/><g clip-path="url(#SVGID_00000083075460076386199110000000666758896500086683_)"><path d="M714.5 383.8V112.4c0-10.7-8.7-19.3-19.3-19.3H249.8c-10.7 0-19.3 8.7-19.3 19.3v271.3L714.5 383.8 714.5 383.8zM245.4 115.5c0-4.2 3.4-7.6 7.6-7.6h439c4.2 0 7.6 3.4 7.6 7.6v247.2c0 4.2-3.4 7.6-7.6 7.6H253c-4.2 0-7.6-3.4-7.6-7.6V115.5zM527.6 389c-1.3 1.3-3.2 2.2-5.2 2.2h-99.7c-4.1 0-7.4-3.3-7.4-7.4h114.5C529.7 385.8 528.9 387.6 527.6 389z" fill="#3d3d3d"/><path d="M692 107.9H253c-4.2 0-7.6 3.4-7.6 7.6v247.1c0 4.2 3.4 7.6 7.6 7.6h439c4.2 0 7.6-3.4 7.6-7.6V115.5C699.6 111.3 696.2 107.9 692 107.9z" fill="#bcbcbc"/><path d="M529.7 383.8c0 2-.8 3.9-2.2 5.2-1.3 1.3-3.2 2.2-5.2 2.2h-99.7c-4.1 0-7.4-3.3-7.4-7.4L529.7 383.8 529.7 383.8z" fill="#bcbcbc"/><path d="M529.7 383.8c0 2-.8 3.9-2.2 5.2-1.3 1.3-3.2 2.2-5.2 2.2h-99.7c-4.1 0-7.4-3.3-7.4-7.4L529.7 383.8 529.7 383.8z"/><path d="M692 107.9H253c-4.2 0-7.6 3.4-7.6 7.6v247.1c0 4.2 3.4 7.6 7.6 7.6h439c4.2 0 7.6-3.4 7.6-7.6V115.5C699.6 111.3 696.2 107.9 692 107.9z" fill="#ffffff"/><path clip-rule="evenodd" d="M714.5 383.8 714.5 383.8h32.7c0 5-2 9.5-5.3 12.8s-7.8 5.3-12.8 5.3H215.9c-10 0-18.1-8.1-18.1-18.1h32.7l0 0L714.5 383.8 714.5 383.8zM522.4 391.1c2 0 3.9-.8 5.2-2.2 1.3-1.3 2.2-3.2 2.2-5.2H415.3c0 4.1 3.3 7.4 7.4 7.4L522.4 391.1 522.4 391.1z" fill="#bcbcbc" fill-rule="evenodd"/></g><path clip-path="url(#SVGID_00000005957529923628289320000006267912750948556445_)" d="M863.4 426.1H81.6c-6.7 0-12.1-5.4-12.1-12.1l0 0c0-6.7 5.4-12.1 12.1-12.1h781.8c6.7 0 12.1 5.4 12.1 12.1l0 0C875.5 420.7 870.1 426.1 863.4 426.1z" fill="#e2f1ff"/><g clip-path="url(#SVGID_00000034777193844872884020000011047890814899034766_)"><path d="M116.7 495 145.4 426.1 169.6 426.1 141 495Z" fill="#e2f1ff"/></g><g clip-path="url(#SVGID_00000055702675316332488150000016445443299597956262_)"><path d="M828.3 495 799.6 426.1 775.4 426.1 804 495Z" fill="#e2f1ff"/></g><g fill="#94d0f8"><circle clip-path="url(#SVGID_00000138554429407647852780000001314348185702308511_)" cx="321" cy="235.8" r="17.4"/><circle clip-path="url(#SVGID_00000127019626641700573970000003552775506024692913_)" cx="375.7" cy="235.8" r="17.4"/><circle clip-path="url(#SVGID_00000021799914937292683660000004207043706342634918_)" cx="430.3" cy="235.8" r="17.4"/><circle clip-path="url(#SVGID_00000035494115475756554690000010764824240815843489_)" cx="485" cy="235.8" r="17.4"/></g><g clip-path="url(#SVGID_00000162332194128736990630000003525439364909038985_)"><circle cx="674" cy="224.5" fill="#ffffff" r="130.2"/><path d="M780.8 117.6C752.2 89 714.3 73.3 673.9 73.3c-39.5 0-77.7 15.6-105.9 43.4-29.4 28.9-45.5 67.8-45.2 109.1.3 39.5 16.3 77.6 44.2 105.5 28.6 28.6 66.5 44.3 106.9 44.3 27.4 0 53.7-7.3 76.7-20.9 6-3.5 13.6-2.5 18.5 2.4l0 0 40.8-40.8-.9-.9c-4.8-4.8-5.9-12.3-2.6-18.3 12.1-22 18.6-46.9 18.6-72.7C825.1 184.1 809.4 146.2 780.8 117.6zM766 316.5c-24.6 24.6-57.3 38.1-92 38.1-34.8 0-67.5-13.5-92-38.1-24.6-24.6-38.1-57.3-38.1-92 0-34.8 13.5-67.5 38.1-92 24.6-24.6 57.3-38.1 92-38.1 34.8 0 67.5 13.5 92 38.1 24.6 24.6 38.1 57.3 38.1 92C804.1 259.3 790.6 292 766 316.5z" fill="#3e5fff"/><g fill="#3d3d3d"><path d="M821.8 329.6 782.4 369c-5.4 5.4-14.3 5.4-19.7 0l0 0c-5.4-5.4-5.4-14.3 0-19.7l39.4-39.4c5.4-5.4 14.3-5.4 19.7 0l0 0C827.3 315.3 827.3 324.1 821.8 329.6z"/><path d="M989.9 537 989.9 537c-12.7 12.7-33.4 12.3-45.6-.9L785.9 365.5l32.4-32.4L989 491.5C1002.2 503.7 1002.5 524.3 989.9 537z"/></g></g><g clip-path="url(#SVGID_00000009558932763291667150000005918498973617868470_)"><g enable-background="new" fill="#3d3d3d"><path d="M563 227.8c0-3.1 2.5-5.6 5.6-5.6 3 0 5.6 2.5 5.6 5.6 0 3.1-2.6 5.6-5.6 5.6C565.4 233.4 562.9 230.9 563 227.8zM563 255.7c0-3.1 2.5-5.6 5.6-5.6 3 0 5.6 2.5 5.6 5.6 0 3.1-2.6 5.6-5.6 5.6C565.4 261.3 562.9 258.8 563 255.7z"/><path d="M583.6 253.9l18.1-17.8c5.1-5.2 7.8-8.3 7.8-12.7 0-4.9-3.7-7.9-8.7-7.9-5.2 0-8.6 3.3-8.6 8.7h-9c0-9.9 7.3-16.3 17.7-16.3 10.5 0 17.6 6.4 17.6 15.1 0 5.9-2.8 10.6-12.9 20.3l-9 9.1v.4h22.7v7.9h-35.8V253.9z"/><path d="M626.1 243.6l22.1-35H660v34.7h6.7v7.8H660v9.7h-9v-9.7h-24.9V243.6zM651.1 219.3h-.4l-14.9 23.6v.4h15.3V219.3z"/><path d="M674.4 246.6h9.6c.2 4.3 4.3 7 9.5 7 5.6 0 9.6-3.2 9.5-7.8 0-4.7-3.9-8-10.5-8h-4.6v-7.3h4.6c5.4 0 9.2-3 9.1-7.6 0-4.4-3.2-7.3-8.1-7.3-4.8 0-8.9 2.7-9 7.1h-9.1c.2-8.7 8-14.8 18.2-14.8 10.4 0 17.2 6.5 17.2 14.4 0 5.9-3.8 10.1-9.4 11.3v.4c7.3 1 11.4 5.7 11.4 12.2 0 8.8-8.1 15.2-19.3 15.2C682.5 261.5 674.6 255.4 674.4 246.6z"/><path d="M720.7 236.1c0-17.8 7.9-28.3 20.5-28.3 9.9 0 16.7 6.3 17.8 14.8h-9.3c-1-4-4-6.6-8.5-6.6-7.2 0-11.3 6.7-11.3 17.6h.4c2.5-4.5 7.4-7.2 13-7.2 9.1 0 16.2 7.1 16.1 17 0 10.3-7.5 18.1-18.8 18C730.6 261.4 720.7 255.3 720.7 236.1zM750.2 243.7c0-5.6-4-10-9.6-10s-9.8 4.6-9.8 10.1c0 5.5 4.1 10.1 9.7 10.1C746.1 253.8 750.3 249.4 750.2 243.7z"/></g></g><path clip-path="url(#SVGID_00000055691433404049393660000017750020748326019000_)" d="M798.3 353.2l20-20 9.5 8.8-26.7 15C798.7 358.4 796.3 355.2 798.3 353.2z"/><path clip-path="url(#SVGID_00000101074429876627127260000015871889071856927387_)" d="M169.6 426.1l-2.8 6.7-13.3-4.1c-1.4-.4-1.1-2.5.4-2.5h15.7V426.1z" fill="#b1cfe5"/><path clip-path="url(#SVGID_00000021830165097905357730000006304428335642683555_)" d="M775.4 426.1l2.8 6.7 13.3-4.1c1.4-.4 1.1-2.5-.4-2.5h-15.7V426.1z" fill="#b1cfe5"/></svg>